<svg width="217" height="118" viewBox="0 0 217 118" fill="none" xmlns="http://www.w3.org/2000/svg">
<path d="M86 20.1875L72 15.1988L72.002 9.59842C72.002 7.10407 74.6112 4.00001 77.6004 4.00001L80.3996 4C83.3888 4 86 7.10209 86 9.6004V20.1875Z" fill="#4385F5"/>
<path d="M4.67138 64.2186C8.301 65.1655 11.9411 62.7235 12.4415 59.0059L15 40V7.5C15 3.35786 11.6421 0 7.5 0C3.35786 0 -1.8105e-07 3.35787 0 7.5L1.42062e-06 40L1.46146e-06 58.1723C1.46785e-06 61.0159 1.91989 63.5008 4.67138 64.2186Z" fill="#EA4235"/>
<path d="M32.5 86.5C46.3071 86.5 57.5 75.3071 57.5 61.5C57.5 47.6929 46.3071 36.5 32.5 36.5C18.6929 36.5 7.5 47.6929 7.5 61.5C7.5 75.3071 18.6929 86.5 32.5 86.5Z" stroke="#EA4235" stroke-width="15"/>
<path d="M187 36C175.954 36 167 44.9543 167 56C167 67.0457 175.954 76 187 76C198.046 76 207 67.0457 207 56C207 44.9543 198.046 36 187 36Z" stroke="#EA4235" stroke-width="10"/>
<path d="M209.5 23C205.358 23 202 26.3579 202 30.5C202 34.6421 205.358 38 209.5 38C213.642 38 217 34.6421 217 30.5C217 26.3579 213.642 23 209.5 23Z" fill="#4385F5"/>
<path d="M88 22.5V76.6694L79 94L70 76.6694V16L88 22.5Z" fill="#4385F5"/>
<path fill-rule="evenodd" clip-rule="evenodd" d="M97 87.6667H111.502C113.841 87.6667 115.786 87.669 117.576 87.6711H117.577H117.577C120.761 87.6749 123.454 87.678 127 87.6667C143.567 87.6667 157 74.98 157 59.3333C157 43.6867 143.567 31 127 31C110.433 31 97 43.6867 97 59.3333C97 66.08 97.0016 73.5 97.0016 73.5L97 87.6667ZM115 47C113.343 47 112 48.3431 112 50C112 51.6569 113.343 53 115 53H139C140.657 53 142 51.6569 142 50C142 48.3431 140.657 47 139 47H115ZM106 60C106 58.3431 107.343 57 109 57H133C134.657 57 136 58.3431 136 60C136 61.6569 134.657 63 133 63H109C107.343 63 106 61.6569 106 60ZM115 67C113.343 67 112 68.3431 112 70C112 71.6569 113.343 73 115 73H139C140.657 73 142 71.6569 142 70C142 68.3431 140.657 67 139 67H115Z" fill="#FCBC03"/>
<path d="M173.5 80.0004C171.595 82.6338 171 85.8703 171 89.3691C171 98.2057 178.163 105.369 187 105.369C195.837 105.369 203 98.2057 203 89.3691C203 85.8703 202.62 82.6338 200.714 80.0004" stroke="#109D59" stroke-width="10"/>
</svg>
