<?xml version="1.0"?>
<svg xmlns="http://www.w3.org/2000/svg" xmlns:xlink="http://www.w3.org/1999/xlink" version="1.1" id="Capa_1" x="0px" y="0px" viewBox="0 0 492.641 492.641" style="enable-background:new 0 0 492.641 492.641;" xml:space="preserve" width="512" height="512" class=""><g><path id="XMLID_204_" d="M482.455,192.241L305.057,70.816c-8-5.478-18.396-6.072-26.973-1.541  c-8.58,4.514-13.963,13.43-13.963,23.133v45.531C117.458,142.534,0,258.657,0,401.624c0,0.885,0,1.752,0.018,2.637  c0.097,9.895,6.94,18.555,16.774,21.27c9.831,2.717,20.355-1.141,25.864-9.477c46.977-71.285,128.334-119.16,221.499-122.068v38.301  c0,9.736,5.397,18.65,14.024,23.166c8.627,4.516,19.04,3.871,27.039-1.672l177.351-123.014c6.328-4.387,10.088-11.6,10.072-19.295  C492.608,203.775,488.802,196.595,482.455,192.241z" data-original="#000000" class="active-path" style="fill:#FFFFFF" data-old_color="#000000"/></g> </svg>
